<?xml version="1.0" standalone="no"?>
<!DOCTYPE svg PUBLIC "-//W3C//DTD SVG 20010904//EN"
 "http://www.w3.org/TR/2001/REC-SVG-20010904/DTD/svg10.dtd">
<svg version="1.0" xmlns="http://www.w3.org/2000/svg"
 width="208.000000pt" height="208.000000pt" viewBox="0 0 208.000000 208.000000"
 preserveAspectRatio="xMidYMid meet">
<metadata>
Created by potrace 1.14, written by Peter Selinger 2001-2017
</metadata>
<g transform="translate(0.000000,208.000000) scale(0.100000,-0.100000)"
fill="#000000" stroke="none">
<path d="M1589 2043 c10 -19 9 -22 -4 -17 -8 4 -15 10 -15 15 0 15 -22 10 -36
-8 -13 -17 -14 -17 -8 0 3 9 1 17 -5 17 -6 0 -11 -7 -11 -15 0 -8 -4 -15 -10
-15 -5 0 -7 7 -4 15 5 13 3 13 -22 0 -16 -8 -37 -12 -48 -9 -14 5 -16 3 -10
-7 6 -10 3 -10 -11 1 -11 9 -16 10 -11 3 4 -7 3 -13 -1 -13 -5 0 -15 6 -22 13
-11 10 -13 9 -8 -4 3 -9 0 -16 -8 -16 -8 0 -12 8 -10 20 4 15 2 17 -10 7 -12
-10 -18 -10 -31 1 -17 14 -117 21 -108 8 2 -5 11 -6 18 -3 8 3 16 1 20 -4 7
-11 -45 -9 -65 3 -11 7 -12 6 -2 -6 10 -13 10 -15 -5 -14 -9 0 -22 4 -28 7
-11 7 -33 6 -49 -3 -23 -13 -46 -18 -40 -9 3 6 1 10 -4 10 -6 0 -11 -8 -11
-17 0 -13 -3 -14 -8 -6 -11 17 -53 23 -76 11 -13 -7 -16 -7 -12 1 5 7 -1 11
-14 11 -14 0 -19 -4 -14 -12 6 -10 4 -10 -8 0 -14 11 -18 10 -28 -5 -9 -15
-11 -15 -6 -1 2 9 -1 19 -8 21 -10 4 -12 -1 -9 -16 4 -18 3 -19 -6 -7 -6 9
-28 16 -53 16 -24 1 -45 3 -48 4 -22 9 -190 16 -190 8 0 -4 -6 -5 -14 -2 -8 3
-17 1 -21 -5 -3 -6 -11 -11 -17 -11 -5 0 0 9 13 20 13 10 18 19 12 20 -7 0
-13 -5 -13 -11 0 -6 -9 -9 -20 -6 -11 3 -18 1 -14 -4 3 -5 -6 -9 -20 -9 -13 0
-37 -5 -53 -10 -25 -9 -26 -9 -10 4 17 13 16 14 -3 19 -11 3 -23 1 -26 -4 -3
-5 -10 -6 -16 -3 -7 4 -8 2 -4 -5 4 -6 12 -8 18 -5 7 4 8 2 4 -4 -4 -6 -14 -8
-23 -5 -12 5 -14 3 -8 -7 5 -8 4 -11 -3 -6 -6 4 -9 14 -6 24 3 10 0 8 -8 -5
-13 -21 -16 -23 -39 -23 -5 0 -7 -4 -4 -10 10 -17 -4 -11 -25 10 -23 23 -42
19 -34 -8 3 -9 -1 -6 -9 7 -12 19 -15 21 -20 7 -4 -9 -13 -13 -22 -10 -8 3
-15 1 -15 -6 0 -6 4 -8 10 -5 5 3 10 1 10 -5 0 -6 4 -9 8 -6 5 3 9 -2 9 -10 0
-10 -4 -11 -11 -4 -5 5 -14 10 -19 10 -5 0 -1 -7 7 -16 9 -8 14 -19 11 -24 -2
-4 10 -6 28 -3 17 2 44 6 59 7 14 2 30 6 35 9 8 5 14 -29 16 -85 1 -15 4 -25
8 -22 4 2 9 -3 12 -11 4 -9 1 -12 -8 -9 -14 6 -15 -12 -3 -32 4 -6 6 -21 3
-32 -2 -12 1 -25 7 -28 7 -4 8 -2 4 4 -4 7 -2 12 4 12 7 0 9 -7 6 -16 -3 -9
-6 -18 -6 -20 0 -3 -4 -2 -10 1 -6 3 -7 -1 -4 -10 5 -13 9 -13 23 -3 13 10 13
9 -2 -8 -18 -22 -23 -54 -8 -54 19 0 21 -34 4 -53 -17 -20 -17 -20 5 -14 22 5
23 4 8 -12 -9 -10 -13 -21 -10 -24 4 -4 1 -14 -7 -24 -9 -11 -10 -14 -1 -9 6
4 12 3 12 -3 0 -5 -8 -15 -17 -20 -10 -6 -13 -11 -6 -11 7 0 10 -12 8 -32 -4
-29 -3 -30 9 -12 8 10 18 16 22 11 4 -4 2 -7 -4 -7 -7 0 -12 -7 -12 -15 0 -8
-6 -15 -12 -15 -8 0 -9 -3 -3 -8 6 -4 17 -16 25 -27 14 -19 14 -19 -3 -6 -9 8
-20 11 -24 7 -4 -3 2 -12 12 -20 14 -10 15 -15 5 -21 -9 -6 -11 -4 -5 6 5 8 4
10 0 6 -5 -4 -10 -13 -11 -20 -1 -7 -5 -21 -9 -32 -5 -14 -4 -16 3 -6 17 23
22 -1 11 -49 -3 -9 3 -14 13 -14 10 1 15 -2 12 -8 -3 -5 -15 -6 -27 -3 -15 4
-18 3 -9 -3 8 -5 13 -12 13 -16 -1 -3 0 -8 0 -11 5 -21 3 -34 -9 -60 -13 -26
-13 -28 -1 -18 10 8 19 9 29 1 12 -8 11 -9 -4 -4 -13 4 -17 2 -13 -7 3 -8 1
-20 -5 -28 -8 -11 -9 -10 -4 4 3 11 2 16 -4 12 -6 -3 -8 -19 -5 -36 3 -18 1
-29 -6 -29 -8 0 -8 -4 -2 -12 12 -16 11 -68 -1 -87 -6 -9 -5 -12 2 -7 7 4 12
-7 14 -31 2 -32 6 -37 23 -35 19 3 19 3 -1 -12 -12 -9 -21 -25 -20 -38 1 -13
-3 -29 -8 -37 -8 -11 -8 -13 1 -7 17 9 17 -6 1 -23 -11 -11 -10 -12 1 -6 11 6
13 4 8 -8 -4 -10 -2 -17 5 -17 6 0 5 -6 -3 -17 -12 -15 -12 -16 3 -10 22 8 23
3 2 -17 -8 -9 -11 -16 -5 -16 6 0 11 -7 11 -16 0 -8 4 -13 9 -10 5 3 12 -1 15
-10 8 -21 8 -24 -5 -24 -5 0 -7 5 -4 10 3 6 1 10 -4 10 -19 0 -12 -22 9 -27
13 -3 20 -14 20 -29 0 -27 10 -30 29 -11 10 10 12 9 9 -3 -2 -8 2 -14 9 -13 6
1 10 -8 9 -21 -2 -16 1 -23 9 -19 7 2 16 -1 21 -8 5 -8 3 -10 -6 -4 -9 5 -11
4 -6 -4 4 -6 16 -9 27 -6 11 4 19 2 19 -5 0 -6 -4 -8 -10 -5 -5 3 -10 -1 -10
-9 0 -10 9 -16 25 -16 14 0 25 -4 25 -10 0 -5 -8 -7 -17 -4 -15 5 -15 4 -3 -4
8 -6 17 -9 21 -6 4 2 18 -10 31 -28 12 -18 21 -34 18 -35 -3 -1 -1 -5 4 -10 5
-5 6 -3 2 5 -4 6 -2 12 3 12 6 0 12 -4 12 -10 1 -5 2 -16 3 -22 1 -7 7 -12 14
-10 7 1 12 -3 12 -9 0 -5 6 -7 12 -3 19 12 48 12 55 1 3 -6 1 -7 -5 -3 -7 4
-12 1 -12 -7 0 -8 7 -18 16 -21 8 -3 12 -2 9 3 -3 5 -1 12 5 16 6 4 7 11 4 17
-4 6 7 0 25 -13 32 -23 41 -35 19 -24 -7 4 -5 0 6 -9 10 -8 15 -19 12 -24 -3
-5 1 -15 9 -22 8 -7 12 -17 8 -23 -3 -6 -1 -7 6 -3 6 4 9 12 6 17 -4 5 -1 9 4
9 6 0 11 -9 11 -20 0 -23 10 -26 29 -7 10 10 12 9 11 -3 -4 -28 0 -41 10 -35
6 4 7 12 3 18 -4 7 0 6 10 -2 18 -15 23 -26 7 -16 -5 3 -10 1 -10 -4 0 -15 13
-14 29 2 12 10 13 8 7 -8 -6 -16 -5 -18 5 -8 15 15 33 18 25 4 -3 -4 6 -6 21
-3 16 3 24 1 20 -5 -4 -6 1 -17 10 -24 14 -12 16 -12 8 0 -6 11 -4 13 9 8 10
-4 22 -7 27 -7 6 0 7 -6 3 -12 -5 -9 -2 -9 9 1 9 7 17 10 17 6 0 -4 6 -2 13 4
8 6 17 8 21 4 4 -4 4 0 1 8 -5 12 0 15 22 14 19 -2 36 6 53 24 14 15 35 27 48
28 50 2 54 3 49 17 -7 19 17 28 33 13 9 -9 11 -9 7 -1 -7 12 20 29 37 25 5 -1
3 5 -4 14 -11 13 -10 15 3 9 14 -5 35 18 35 39 0 5 4 12 8 15 4 4 4 2 1 -4 -4
-7 -1 -14 6 -17 19 -7 50 20 44 37 -3 8 1 20 8 26 8 7 13 16 10 20 -3 5 5 6
17 3 19 -4 20 -3 8 6 -14 10 -7 16 14 12 5 -1 3 6 -5 15 -9 12 -9 15 -1 10 6
-4 12 -3 12 1 0 5 -6 15 -12 22 -7 7 -8 12 -3 11 23 -5 36 1 29 13 -4 7 -3 9
2 4 5 -5 10 -13 10 -18 1 -5 2 -13 3 -19 0 -5 5 -10 11 -10 5 0 7 8 4 18 -3 9
2 6 10 -8 12 -20 15 -22 16 -7 0 10 4 16 9 12 5 -3 13 0 17 6 4 7 3 9 -4 5 -6
-3 -13 -2 -17 4 -6 10 3 13 37 13 10 0 14 5 10 15 -4 11 -2 13 8 7 9 -6 11 -4
6 4 -5 7 0 21 9 31 10 11 14 24 9 32 -5 9 -2 8 11 -2 17 -14 18 -13 13 8 -5
18 -4 21 7 12 9 -8 17 -7 28 4 8 8 18 12 23 8 5 -4 3 0 -4 9 -6 9 -8 20 -4 24
4 5 2 5 -4 2 -7 -4 -10 2 -9 16 4 37 5 38 15 32 6 -3 7 1 4 10 -5 13 -9 13
-23 3 -15 -12 -15 -11 0 7 9 11 19 30 21 42 5 17 2 20 -11 16 -13 -5 -12 -2 4
17 11 13 14 20 6 15 -10 -6 -12 -2 -6 15 4 13 3 20 -2 17 -5 -4 -10 1 -10 9 0
8 5 13 11 11 6 -3 11 6 11 18 0 18 -3 21 -12 13 -9 -7 -13 -7 -13 0 0 6 4 13
9 17 12 7 11 66 -1 82 -6 7 -5 14 3 19 8 5 9 3 4 -6 -5 -9 -4 -11 4 -6 9 6 9
11 0 22 -6 7 -16 11 -22 7 -6 -3 -7 -1 -3 6 4 6 12 9 17 6 5 -3 6 2 2 11 -5
13 -3 15 8 10 8 -4 5 0 -5 8 -18 15 -18 16 -2 16 9 0 14 5 11 10 -4 6 -11 8
-16 5 -5 -3 -6 1 -3 9 3 9 9 14 13 12 3 -2 6 13 6 34 0 21 -3 36 -7 34 -4 -2
-9 0 -13 6 -3 5 1 10 9 10 10 0 13 6 10 15 -4 8 -11 12 -18 9 -6 -3 0 4 14 16
16 14 19 20 8 16 -10 -3 -20 0 -24 6 -4 6 -3 8 3 5 6 -4 17 1 24 10 12 14 11
15 -11 9 -14 -4 -20 -4 -15 1 14 11 19 32 18 71 -1 22 2 30 10 25 7 -4 6 0 -2
10 -7 9 -10 17 -6 17 4 0 -1 12 -11 28 -14 21 -14 24 -2 14 11 -9 18 -10 23
-2 3 5 1 10 -4 10 -6 0 -11 5 -11 11 0 5 4 8 8 5 4 -2 8 11 8 29 0 20 -4 31
-11 27 -6 -4 -6 -1 1 9 6 8 11 25 12 39 1 19 -1 21 -8 10 -7 -11 -9 -10 -7 7
0 12 5 19 9 17 4 -3 8 2 8 10 0 9 -4 16 -8 16 -5 0 -9 7 -9 15 0 11 4 12 13 4
9 -8 11 -5 7 10 -3 12 -10 18 -17 15 -6 -3 -4 0 4 8 9 7 15 20 15 28 -1 8 3
23 8 34 6 12 6 16 -1 12 -6 -3 -13 -2 -17 4 -3 5 0 10 7 10 8 1 5 7 -7 17 -15
12 -16 14 -3 10 9 -3 19 0 22 9 9 24 7 31 -4 14 -8 -12 -10 -10 -10 8 0 15 -4
21 -12 16 -7 -4 -8 -3 -4 4 4 6 13 9 21 5 24 -9 17 13 -7 26 -21 10 -21 11 -2
6 14 -4 21 0 21 10 0 8 -5 15 -11 15 -8 0 -8 2 0 8 14 9 27 45 14 37 -6 -4 -5
5 2 20 6 14 14 22 17 17 3 -5 15 -8 26 -6 11 2 23 -2 27 -9 5 -8 8 -4 8 11 0
12 5 22 11 22 6 0 9 -6 6 -13 -5 -14 28 -17 38 -4 3 4 2 5 -2 2 -3 -3 -12 3
-19 13 -10 14 -10 21 3 42 15 23 15 24 0 11 -14 -11 -20 -11 -34 0 -14 12 -16
12 -8 0 6 -11 3 -13 -14 -8 -16 4 -21 2 -18 -7 3 -7 -1 -13 -9 -13 -8 0 -14 6
-14 13 0 35 -93 62 -111 33 -7 -12 -9 -11 -9 1 0 9 -3 11 -8 5 -18 -25 -40
-36 -48 -24 -4 7 -3 9 3 6 6 -4 16 0 22 7 9 11 9 16 0 22 -8 4 -9 3 -5 -4 13
-21 -27 -13 -52 11 l-25 22 12 -22z m-293 -16 c4 -3 -3 -5 -15 -2 -11 2 -21
-1 -21 -7 0 -6 -3 -9 -6 -5 -3 3 -3 10 0 15 7 11 31 10 42 -1z m449 -6 c3 -5
2 -12 -3 -15 -5 -3 -9 1 -9 9 0 17 3 19 12 6z m-1053 -8 c-6 -2 -9 -10 -6 -15
4 -7 2 -8 -5 -4 -13 9 -5 26 12 25 9 0 8 -2 -1 -6z m38 -3 c0 -5 -5 -10 -11
-10 -5 0 -7 5 -4 10 3 6 8 10 11 10 2 0 4 -4 4 -10z m397 -5 c4 -4 3 -5 -4 -2
-6 4 -13 2 -15 -5 -3 -8 -6 -6 -10 4 -7 17 15 19 29 3z m584 -8 c-10 -9 -11
-8 -5 6 3 10 9 15 12 12 3 -3 0 -11 -7 -18z m-1244 7 c-8 -8 -48 -13 -43 -6 2
4 14 8 26 9 12 1 20 0 17 -3z m313 0 c0 -8 -19 -13 -24 -6 -3 5 1 9 9 9 8 0
15 -2 15 -3z m35 -4 c-3 -5 -12 -10 -18 -10 -7 0 -6 4 3 10 19 12 23 12 15 0z
m186 -7 c13 -16 12 -17 -3 -4 -17 13 -22 21 -14 21 2 0 10 -8 17 -17z m793 9
c3 -5 -1 -9 -9 -9 -8 0 -12 4 -9 9 3 4 7 8 9 8 2 0 6 -4 9 -8z m-1555 -16 c9
-10 7 -17 -6 -27 -16 -12 -17 -12 -6 2 10 12 10 18 1 27 -7 7 -9 12 -6 12 3 0
11 -6 17 -14z m66 -6 c3 -5 1 -10 -4 -10 -6 0 -11 5 -11 10 0 6 2 10 4 10 3 0
8 -4 11 -10z m1575 6 c0 -2 -8 -10 -17 -17 -16 -13 -17 -12 -4 4 13 16 21 21
21 13z m-1590 -42 c0 -8 -19 -13 -24 -6 -3 5 1 9 9 9 8 0 15 -2 15 -3z m-60
-8 c0 -3 -4 -8 -10 -11 -5 -3 -10 -1 -10 4 0 6 5 11 10 11 6 0 10 -2 10 -4z
m117 -163 c0 -9 -4 -10 -14 -2 -7 6 -13 12 -13 14 0 1 6 2 13 2 8 0 14 -6 14
-14z m20 -278 c0 -8 -4 -12 -9 -9 -5 3 -6 10 -3 15 9 13 12 11 12 -6z m1333
-11 c0 -9 -5 -12 -12 -8 -8 5 -9 1 -4 -12 6 -15 4 -16 -5 -7 -13 13 -6 43 11
43 5 0 10 -7 10 -16z m43 1 c-3 -9 -8 -14 -10 -11 -3 3 -2 9 2 15 9 16 15 13
8 -4z m-1378 -25 c-3 -5 -12 -10 -18 -10 -7 0 -6 4 3 10 19 12 23 12 15 0z
m1392 -25 c0 -8 -4 -12 -9 -9 -5 3 -6 10 -3 15 9 13 12 11 12 -6z m-12 -155
c3 -5 1 -10 -4 -10 -6 0 -11 5 -11 10 0 6 2 10 4 10 3 0 8 -4 11 -10z m-1380
-392 c5 4 5 1 1 -6 -6 -10 -11 -10 -22 -1 -8 6 -14 14 -14 16 0 3 6 0 13 -6 8
-6 18 -7 22 -3z m-5 -42 c0 -3 -4 -8 -10 -11 -5 -3 -10 -1 -10 4 0 6 5 11 10
11 6 0 10 -2 10 -4z m-4 -84 c-17 -16 -18 -16 -5 5 7 12 15 20 18 17 3 -2 -3
-12 -13 -22z m34 -36 c0 -8 -4 -17 -9 -21 -6 -3 -9 4 -8 15 1 23 17 28 17 6z
m-29 -33 c13 -16 12 -17 -3 -4 -10 7 -18 15 -18 17 0 8 8 3 21 -13z m6 -78 c0
-8 -4 -12 -9 -9 -5 3 -6 10 -3 15 9 13 12 11 12 -6z m1368 -65 c-3 -5 -12 -10
-18 -10 -7 0 -6 4 3 10 19 12 23 12 15 0z m-235 -45 c-9 -11 -9 -15 -1 -15 7
0 9 -4 6 -10 -3 -5 2 -10 12 -11 14 0 15 -2 3 -6 -8 -3 -19 -12 -23 -19 -12
-21 -24 -16 -21 9 1 12 3 32 3 45 1 13 7 22 17 22 14 0 14 -3 4 -15z m170 -8
c0 -2 -10 -12 -22 -23 l-23 -19 19 23 c18 21 26 27 26 19z m-40 -57 c0 -5 -2
-10 -4 -10 -3 0 -8 5 -11 10 -3 6 -1 10 4 10 6 0 11 -4 11 -10z m-1040 -101
c15 -28 5 -23 -15 7 -9 15 -12 23 -6 20 6 -4 16 -16 21 -27z m750 -35 c0 -22
-16 -17 -17 6 -1 11 2 18 8 15 5 -4 9 -13 9 -21z m-690 -22 c0 -5 -7 -9 -15
-9 -8 0 -12 4 -9 9 3 4 9 8 15 8 5 0 9 -4 9 -8z m125 -30 c-3 -3 -11 0 -18 7
-9 10 -8 11 6 5 10 -3 15 -9 12 -12z m45 -68 c0 -8 -19 -13 -24 -6 -3 5 1 9 9
9 8 0 15 -2 15 -3z m441 -37 c-10 -9 -11 -8 -5 6 3 10 9 15 12 12 3 -3 0 -11
-7 -18z m-89 -42 c-8 -16 -9 -16 -15 -1 -4 10 -3 15 3 11 6 -3 10 -1 10 6 0 7
3 10 6 6 3 -3 2 -13 -4 -22z m-97 -25 c-3 -5 -12 -10 -18 -10 -7 0 -6 4 3 10
19 12 23 12 15 0z m16 -13 c-10 -9 -11 -8 -5 6 3 10 9 15 12 12 3 -3 0 -11 -7
-18z"/>
<path d="M1905 1971 c-6 -11 13 -26 22 -17 4 3 0 6 -8 6 -11 0 -11 2 1 10 9 6
10 10 3 10 -6 0 -14 -4 -18 -9z"/>
<path d="M328 1598 c9 -11 9 -18 2 -21 -6 -3 -5 -4 2 -3 18 4 16 28 -2 34 -13
4 -13 3 -2 -10z"/>
<path d="M320 1119 c0 -5 5 -7 10 -4 6 3 10 8 10 11 0 2 -4 4 -10 4 -5 0 -10
-5 -10 -11z"/>
<path d="M1740 600 c0 -5 5 -10 11 -10 5 0 7 5 4 10 -3 6 -8 10 -11 10 -2 0
-4 -4 -4 -10z"/>
<path d="M365 520 c3 -5 8 -10 11 -10 2 0 4 5 4 10 0 6 -5 10 -11 10 -5 0 -7
-4 -4 -10z"/>
<path d="M404 478 c-4 -7 -4 -10 1 -6 4 4 15 2 24 -5 14 -11 14 -10 2 6 -16
20 -18 21 -27 5z"/>
<path d="M1531 364 c0 -11 3 -14 6 -6 3 7 2 16 -1 19 -3 4 -6 -2 -5 -13z"/>
<path d="M1471 306 c-9 -11 -9 -16 1 -22 7 -4 10 -4 6 1 -4 4 -3 14 3 22 6 7
9 13 6 13 -2 0 -10 -6 -16 -14z"/>
<path d="M666 247 c3 -10 9 -15 12 -12 3 3 0 11 -7 18 -10 9 -11 8 -5 -6z"/>
</g>
</svg>
